<svg id="Layer_1" data-name="Layer 1" xmlns="http://www.w3.org/2000/svg" viewBox="0 0 2000 2000"><defs><style>.cls-1{fill:#d2a633;}</style></defs><circle class="cls-1" cx="581.04" cy="758.11" r="144.61"/><circle class="cls-1" cx="581.04" cy="1241.89" r="144.61"/><path class="cls-1" d="M1432.25,1097.87a144.35,144.35,0,0,0-87.27,19.74c-28.25,16.87-63.52,16.66-92,.21l-61.45-35.48a93.83,93.83,0,0,1-46.9-81.51v-1.66a93.84,93.84,0,0,1,46.9-81.51L1253,882.18c28.5-16.45,63.77-16.66,92,.21a144.35,144.35,0,0,0,87.27,19.74c68.23-6.09,123.71-60.87,130.57-129a144.68,144.68,0,0,0-158.5-158.89c-67,6.58-121.4,60.14-129,127a150.67,150.67,0,0,0-.94,19.34,88.7,88.7,0,0,1-44.28,78.38l-64.85,37.43c-28.73,16.6-63.83,15.36-92.5-1.34l-1.23-.71c-28.77-16.39-47.06-46.37-47.06-79.48V720.39a89.06,89.06,0,0,1,45.83-77.79A144.55,144.55,0,0,0,1143.83,501c-6.84-66.92-60.48-121.07-127.34-128.47a144.63,144.63,0,0,0-88.4,269.16c28.86,16.56,47.46,46.46,47.46,79.74V794.8c0,33.28-18.6,63.18-47.46,79.75a144.59,144.59,0,0,0,0,250.9c28.86,16.57,47.46,46.47,47.46,79.75v74.39a89.1,89.1,0,0,1-45.83,77.81A144.56,144.56,0,0,0,856.17,1499c6.84,66.92,60.48,121.07,127.34,128.47a144.63,144.63,0,0,0,88.4-269.16c-28.86-16.56-47.46-46.47-47.46-79.74V1205.2c0-33.11,18.29-63.12,47.06-79.51l1.23-.71c28.67-16.7,63.77-17.94,92.5-1.34l64.84,37.43a88.71,88.71,0,0,1,44.29,78.38,150.73,150.73,0,0,0,.94,19.35c7.61,66.85,62.07,120.41,129,127a144.67,144.67,0,0,0,158.49-158.89C1556,1158.74,1500.48,1104,1432.25,1097.87Z"/></svg>